# xmcd CD database file
#
# Track frame offsets:
#	150
#	18777
#	36685
#
# Disc length: 756 seconds
#
# Revision: 0
# Processed by: cddbd v1.5PL3 Copyright (c) Steve Scherf et al.
# Submitted via: CDex 1.51
#
DISCID=1e02f203
DTITLE=175R - Glory Days
DYEAR=2004
DGENRE=JPop
TTITLE0=Glory Days
TTITLE1=Story Is...
TTITLE2=Reason
EXTD=YEAR: 2004
EXTT0=
EXTT1=
EXTT2=
PLAYORDER=
